<svg
  version="1.0"
  xmlns="http://www.w3.org/2000/svg"
  width="512.000000pt"
  height="512.000000pt"
  viewBox="0 0 512.000000 512.000000"
  preserveAspectRatio="xMidYMid meet"
>
  <g
    transform="translate(0.000000,512.000000) scale(0.100000,-0.100000)"
    fill="currentColor"
    stroke="none"
  >
    <path
      d="M2255 4489 c-224 -23 -450 -113 -639 -253 -92 -68 -249 -232 -308
-322 -101 -154 -171 -324 -208 -502 l-17 -87 -69 -11 c-249 -42 -448 -142
-625 -312 -177 -169 -286 -362 -335 -592 -25 -115 -25 -351 -1 -473 72 -363
317 -670 669 -837 199 -94 375 -122 748 -118 l265 3 0 200 0 200 -315 5 c-358
7 -395 12 -545 85 -200 96 -338 258 -407 475 -20 65 -23 95 -23 230 0 137 3
163 24 225 88 261 287 445 556 516 56 15 127 23 233 27 154 7 154 7 176 35 20
25 24 44 29 150 12 252 105 480 263 640 197 202 439 298 717 284 119 -6 228
-30 323 -72 130 -57 288 -186 369 -300 57 -79 127 -225 151 -311 14 -54 27
-78 59 -109 100 -100 254 -75 315 51 29 59 23 136 -19 263 -171 509 -593 853
-1116 911 -102 11 -155 11 -270 -1z"
    />
    <path
      d="M4031 3369 c-106 -21 -77 3 -751 -623 -519 -481 -534 -497 -567 -563
-25 -51 -28 -69 -28 -153 0 -88 3 -101 33 -163 31 -62 56 -87 375 -379 188
-172 429 -394 537 -493 293 -270 300 -276 370 -309 l65 -31 465 -3 c256 -2
475 0 487 3 13 3 30 17 39 30 23 35 6 72 -59 127 -29 23 -81 71 -117 104 -36
34 -87 81 -115 104 -27 23 -79 70 -115 104 -37 33 -89 81 -116 106 -155 138
-229 205 -327 295 -107 98 -199 179 -450 400 -69 61 -126 117 -126 125 1 8 73
80 162 160 137 124 700 628 807 723 19 18 62 56 96 87 33 30 101 91 150 135
160 144 163 149 125 196 l-19 24 -439 2 c-241 1 -458 -3 -482 -8z"
    />
    <path
      d="M2500 3342 c-19 -16 -155 -121 -302 -236 -269 -208 -296 -233 -339
-316 l-24 -45 -3 -1039 -2 -1039 22 -24 c12 -12 31 -23 42 -23 12 0 62 33 112
73 50 39 178 140 285 222 255 198 263 206 301 283 l33 67 3 1029 c2 913 1
1032 -13 1052 -22 33 -70 31 -115 -4z"
    />
  </g>
</svg>
