<svg
  width="440pt"
  height="440pt"
  version="1.0"
  viewBox="0 0 440 440"
  xmlns="http://www.w3.org/2000/svg"
>
  <g transform="translate(0 373) scale(.1 -.1)" fill="currentColor">
    <path
      d="m3024 2995c-22-6-56-23-76-36-61-42-853-851-868-888-12-29-11-37 5-67 21-38 228-245 294-292 83-60 119-45 286 118 125 121 157 140 199 118 29-16 341-315 831-798 208-206 375-363 397-373 20-9 49-17 65-17 90 1 213 120 213 207 0 41-15 79-44 113-12 15-285 285-607 600-561 550-629 620-629 645 0 24 80 116 221 255 111 110 153 159 173 202 58 119 14 157-224 197-166 28-190 30-236 16z"
    />
    <path
      d="m488 2310c-133-16-232-64-318-157-67-71-102-134-128-226-15-56-17-124-14-751 2-419 7-708 13-735 25-113 110-237 206-300 54-36 138-69 208-82 28-5 525-10 1130-11l1080-2 66 22c168 56 280 177 315 341 17 82 20 1107 3 1181-7 34-24 59-67 104-31 32-71 64-89 72-63 27-77 21-189-87-124-119-170-144-263-142-108 3-147 29-372 252-199 197-222 228-203 272 5 10 48 59 97 108 109 110 115 135 35 145-75 9-1430 5-1510-4zm892-670c313-178 653-382 683-408 9-8 17-28 17-43 0-36-56-84-206-175-63-38-174-107-247-153-261-166-310-194-346-195-61-2-61-4-61 512v463l25 25c30 30 41 28 135-26zm1462-624c98-83 137-142 123-186-15-48-87-10-187 99-46 49-58 69-58 95 0 18 3 36 7 39 18 19 57 2 115-47zm-74-332c30-21 29-59-4-81-33-21-245-25-281-5-29 16-30 55-3 82 18 18 33 20 143 20 95 0 128-4 145-16zm172-259c22-26 2-63-77-146-85-89-105-103-132-94-26 8-33 32-19 58 19 37 181 197 199 197 9 0 22-7 29-15z"
      fill="#00bc7d"
    />
    <path
      d="m3303 1098c-54-55-97-135-87-162 3-8 21-20 40-26 30-10 37-9 69 16 90 68 143 188 96 214-39 20-66 11-118-42z"
    />
    <path
      d="m3340 713c-66-6-110-55-88-96 19-36 69-47 223-47h147l29 29c35 36 36 54 4 86-21 22-33 25-103 25-44 0-99 2-123 4s-64 1-89-1z"
    />
    <path
      d="m3220 405c-11-12-20-30-20-41 0-45 116-183 167-199 17-4 29 1 48 19 14 14 25 32 25 39 0 23-78 134-117 166-47 39-77 44-103 16z"
    />
  </g>
</svg>
